HIERARCHY
ROOT Hips
{
 OFFSET 0.000000 0.000000 0.000000
 CHANNELS 6 Xposition Yposition Zposition Yrotation Xrotation Zrotation
 JOINT Chest
 {
  OFFSET 0.000000 9.585900 0.002600
  CHANNELS 3 Yrotation Xrotation Zrotation
  JOINT Chest2
  {
   OFFSET 0.000000 9.601200 -0.005300
   CHANNELS 3 Yrotation Xrotation Zrotation
   JOINT Chest3
   {
    OFFSET 0.000000 9.561800 0.000000
    CHANNELS 3 Yrotation Xrotation Zrotation
    JOINT Chest4
    {
     OFFSET 0.000000 9.552100 0.000000
     CHANNELS 3 Yrotation Xrotation Zrotation
     JOINT Neck
     {
      OFFSET 0.000000 14.453000 0.000000
      CHANNELS 3 Yrotation Xrotation Zrotation
      JOINT Head
      {
       OFFSET 0.000000 8.936500 -0.011300
       CHANNELS 3 Yrotation Xrotation Zrotation
       End Site
       {
        OFFSET 0.000000 17.073600 -0.006000
       }
      }
     }
     JOINT RightCollar
     {
      OFFSET -2.921100 9.558500 0.000000
      CHANNELS 3 Yrotation Xrotation Zrotation
      JOINT RightShoulder
      {
       OFFSET -13.519700 0.000000 0.000000
       CHANNELS 3 Yrotation Xrotation Zrotation
       JOINT RightElbow
       {
        OFFSET 0.000000 -29.696600 0.000000
        CHANNELS 3 Yrotation Xrotation Zrotation
        JOINT RightWrist
        {
         OFFSET 0.000000 -24.004700 0.000000
         CHANNELS 3 Yrotation Xrotation Zrotation
         End Site
         {
          OFFSET 0.000000 -17.728500 0.000000
         }
        }
       }
      }
     }
     JOINT LeftCollar
     {
      OFFSET 2.921100 9.558500 0.000000
      CHANNELS 3 Yrotation Xrotation Zrotation
      JOINT LeftShoulder
      {
       OFFSET 13.519700 0.000000 0.000000
       CHANNELS 3 Yrotation Xrotation Zrotation
       JOINT LeftElbow
       {
        OFFSET 0.000000 -29.696600 0.000000
        CHANNELS 3 Yrotation Xrotation Zrotation
        JOINT LeftWrist
        {
         OFFSET 0.000000 -24.004700 0.000000
         CHANNELS 3 Yrotation Xrotation Zrotation
         End Site
         {
          OFFSET 0.000000 -17.728500 0.000000
         }
        }
       }
      }
     }
    }
   }
  }
 }
 JOINT RightHip
 {
  OFFSET -7.771700 -0.012900 -0.001300
  CHANNELS 3 Yrotation Xrotation Zrotation
  JOINT RightKnee
  {
   OFFSET 0.000000 -40.869800 0.001200
   CHANNELS 3 Yrotation Xrotation Zrotation
   JOINT RightAnkle
   {
    OFFSET 0.000000 -39.717900 0.002100
    CHANNELS 3 Yrotation Xrotation Zrotation
    JOINT RightToe
    {
     OFFSET 0.000000 -4.965400 11.033500
     CHANNELS 3 Yrotation Xrotation Zrotation
     End Site
     {
      OFFSET 0.000000 -1.423100 5.872300
     }
    }
   }
  }
 }
 JOINT LeftHip
 {
  OFFSET 7.771700 -0.012900 -0.001300
  CHANNELS 3 Yrotation Xrotation Zrotation
  JOINT LeftKnee
  {
   OFFSET 0.000000 -40.869800 0.001200
   CHANNELS 3 Yrotation Xrotation Zrotation
   JOINT LeftAnkle
   {
    OFFSET 0.000000 -39.717900 0.002100
    CHANNELS 3 Yrotation Xrotation Zrotation
    JOINT LeftToe
    {
     OFFSET 0.000000 -4.965400 11.033500
     CHANNELS 3 Yrotation Xrotation Zrotation
     End Site
     {
      OFFSET 0.000000 -1.423100 5.872300
     }
    }
   }
  }
 }
}
MOTION
Frames: 16
Frame Time: 0.008333
0.000000 85.388000 0.000000 0.000000 -5.767877 0.000000 0.000000 11.653817 0.000000 0.000000 -5.885947 0.000000 0.000000 -0.000000 0.000000 0.000000 -0.000000 0.000000 0.000000 12.528835 0.000000 0.000000 0.711642 0.000000 0.000000 -0.000000 0.000000 0.000000 0.000000 -90.000000 0.000000 -2.309062 0.000000 0.000000 2.309062 0.000000 0.000000 -0.000000 0.000000 0.000000 -0.000000 90.000000 0.000000 -2.309062 0.000000 0.000000 2.309062 0.000000 0.000000 8.520406 0.000000 0.000000 1.905762 0.000000 -0.000000 -4.658285 0.000000 0.000000 -0.000000 0.000000 0.000000 8.520406 0.000000 0.000000 1.905762 0.000000 -0.000000 -4.658285 0.000000 0.000000 -0.000000 0.000000
-5.391728 55.379472 28.701404 174.883204 -26.148069 -10.204773 0.546072 15.522257 6.815500 -0.051021 8.799002 2.706540 0.002327 10.984671 3.385905 -0.050710 8.788089 2.701639 4.229738 17.917012 -3.410685 5.337269 -6.655740 -4.644673 1.045822 4.306028 -3.607300 -15.886270 -8.259561 5.623030 122.509594 -82.055033 -107.646932 12.874802 -6.907290 -19.135133 -13.739483 0.521229 -5.669806 -3.639256 -22.184862 4.652089 -122.530004 -41.928196 132.844566 21.041633 -42.422940 14.723945 -18.912771 -38.724490 11.401691 34.352168 87.525641 31.456491 1.263657 -18.543201 -1.172143 -0.094631 0.540211 -0.018336 -16.209373 -52.047547 20.396643 169.768769 78.221227 166.070879 -1.038684 -16.254805 0.780715 -0.971369 -2.977854 -0.440005
-5.391777 55.376598 28.704708 174.873637 -26.163910 -10.202008 0.559329 15.547890 6.821701 -0.046499 8.845089 2.726907 0.013696 11.040967 3.412062 -0.044327 8.819673 2.715646 4.255504 17.864244 -3.486414 5.384587 -6.708847 -4.733974 1.020977 4.276559 -3.628071 -15.871930 -8.288695 5.613830 123.084660 -82.059454 -108.224653 12.850764 -6.943110 -19.192116 -13.803618 0.534856 -5.641875 -3.660019 -22.233548 4.653507 -122.448457 -41.946369 132.818760 21.042413 -42.419275 14.614773 -18.895791 -38.716455 11.405675 34.148452 87.532681 31.260343 1.210299 -18.541167 -1.155467 -0.056034 0.541637 -0.021837 -16.182138 -52.037895 20.388103 169.807510 78.222801 166.114120 -1.037659 -16.260050 0.788233 -0.970082 -2.970919 -0.440061
-5.392054 55.373118 28.709821 174.866935 -26.177660 -10.199102 0.568970 15.604285 6.841423 -0.038192 8.868598 2.741621 0.016974 11.054511 3.416387 -0.032918 8.873098 2.741008 4.290675 17.834355 -3.548239 5.438963 -6.736728 -4.810589 1.005138 4.249756 -3.642457 -15.860519 -8.309491 5.592454 123.651764 -82.035183 -108.800790 12.864114 -6.981569 -19.243228 -13.864222 0.550001 -5.619675 -3.696594 -22.269442 4.660741 -122.374270 -41.982231 132.796032 21.040729 -42.406499 14.535039 -18.881925 -38.711854 11.403837 34.053791 87.536395 31.165563 1.207029 -18.537990 -1.150278 -0.059844 0.544529 -0.022849 -16.159675 -52.030389 20.379904 169.825022 78.225532 166.136081 -1.042087 -16.267879 0.789269 -0.966364 -2.959414 -0.434904
-5.393383 55.368915 28.717442 174.864510 -26.183776 -10.191950 0.575173 15.670926 6.873234 -0.031198 8.883686 2.747415 0.007354 11.004071 3.386653 -0.010921 8.970378 2.789039 4.330681 17.823287 -3.595541 5.495259 -6.744271 -4.872687 0.995988 4.225987 -3.650973 -15.849060 -8.325249 5.559526 124.158039 -82.001879 -109.324625 12.880218 -7.037607 -19.308252 -13.920246 0.563352 -5.602205 -3.746184 -22.293602 4.669603 -122.322775 -42.044380 132.779947 21.035879 -42.381322 14.464898 -18.870899 -38.718323 11.394401 33.995048 87.539981 31.107042 1.219248 -18.532485 -1.149775 -0.082566 0.546518 -0.023644 -16.132782 -52.031021 20.366666 169.891626 78.236052 166.204071 -1.045055 -16.279736 0.796362 -0.957933 -2.939594 -0.430349
-5.396082 55.364774 28.726635 174.862060 -26.188626 -10.176430 0.574319 15.683211 6.863808 -0.022723 8.928674 2.774942 0.015110 11.044926 3.405205 -0.005151 8.989893 2.798683 4.370517 17.825081 -3.628816 5.547891 -6.738299 -4.919457 0.987893 4.206372 -3.655604 -15.837869 -8.344900 5.520579 124.563005 -81.962123 -109.752500 12.900139 -7.107242 -19.386505 -13.969513 0.572689 -5.589523 -3.800370 -22.308928 4.680290 -122.302609 -42.133532 132.771389 21.038051 -42.349567 14.382373 -18.854332 -38.730544 11.380437 33.915147 87.545266 31.023855 1.220044 -18.525400 -1.143188 -0.064374 0.547435 -0.024370 -16.095886 -52.035202 20.343411 169.958626 78.250416 166.266849 -1.046792 -16.285563 0.807634 -0.953431 -2.922171 -0.425417
-5.395662 55.363999 28.733664 174.852855 -26.222740 -10.175432 0.593459 15.740484 6.890215 -0.020397 8.940057 2.775876 0.025972 11.094020 3.431573 -0.000634 9.009029 2.806715 4.405873 17.835568 -3.649184 5.592254 -6.723559 -4.950910 0.979926 4.193365 -3.655827 -15.841916 -8.408120 5.488369 124.617301 -81.928415 -109.817767 12.921163 -7.182923 -19.478050 -14.012099 0.581886 -5.581619 -3.853136 -22.321666 4.695656 -122.300946 -42.243916 132.759971 21.054978 -42.320228 14.279924 -18.831415 -38.704615 11.377879 33.777000 87.541709 30.887704 1.200913 -18.514091 -1.136273 -0.062651 0.546386 -0.024353 -16.053742 -52.006198 20.326440 169.978011 78.259043 166.295047 -1.054739 -16.292027 0.806189 -0.947080 -2.909919 -0.417497
-5.396805 55.362565 28.745299 174.852430 -26.231881 -10.172219 0.599748 15.788327 6.920675 -0.018204 8.944010 2.770843 0.047516 11.184683 3.479015 -0.011472 8.972688 2.787548 4.434230 17.852006 -3.659645 5.626444 -6.703079 -4.969723 0.973515 4.188501 -3.651024 -15.845028 -8.475991 5.454479 124.734791 -81.901602 -109.947592 12.963996 -7.246388 -19.577190 -14.047200 0.593659 -5.576823 -3.900546 -22.335350 4.712979 -122.308494 -42.363017 132.740305 21.075762 -42.291607 14.171571 -18.821782 -38.705147 11.379257 33.579590 87.539416 30.689790 1.183852 -18.498871 -1.118252 -0.055793 0.545375 -0.032113 -16.023510 -52.006435 20.313248 169.979066 78.272235 166.301279 -1.068641 -16.286843 0.816057 -0.941353 -2.899890 -0.414252
-5.399500 55.362335 28.758139 174.863384 -26.237004 -10.167567 0.589201 15.808766 6.922548 -0.012135 8.983420 2.792110 0.054929 11.222405 3.496111 -0.011722 8.978541 2.788450 4.453843 17.870141 -3.664972 5.649694 -6.681462 -4.980753 0.968231 4.188625 -3.644662 -15.821096 -8.459313 5.386152 125.456441 -81.846499 -110.706951 13.011613 -7.303778 -19.684855 -14.072289 0.605020 -5.573244 -3.943164 -22.348527 4.730071 -122.323948 -42.476328 132.718614 21.088591 -42.266696 14.075542 -18.816030 -38.708959 11.368566 33.460744 87.530796 30.572845 1.176165 -18.482002 -1.110601 -0.051010 0.544095 -0.033370 -15.971708 -52.015192 20.282788 169.972150 78.290222 166.304162 -1.098056 -16.274429 0.840399 -0.935655 -2.892395 -0.410926
-5.400291 55.365374 28.769720 174.854102 -26.262003 -10.168408 0.603256 15.836489 6.931587 -0.009413 9.023141 2.813997 0.060037 11.252716 3.509165 -0.007963 9.002815 2.798679 4.464534 17.887545 -3.668945 5.662689 -6.661281 -4.988022 0.963948 4.188134 -3.640689 -15.825499 -8.512049 5.345306 125.545793 -81.792235 -110.803529 12.998169 -7.348451 -19.748298 -14.090416 0.612483 -5.569292 -3.961978 -22.412452 4.729737 -122.314328 -42.594794 132.634767 21.090050 -42.253090 14.001851 -18.795986 -38.688139 11.374741 33.170866 87.519690 30.280152 1.167520 -18.461168 -1.101437 -0.036325 0.543838 -0.033827 -15.915685 -51.998562 20.258648 169.972026 78.307321 166.321847 -1.107899 -16.267554 0.845602 -0.931007 -2.886088 -0.406176
-5.400285 55.371165 28.780440 174.839529 -26.298756 -10.176082 0.625272 15.889966 6.960993 -0.007946 9.048629 2.824189 0.064296 11.282265 3.520939 -0.004875 9.026428 2.807903 4.468696 17.905736 -3.670841 5.667931 -6.640736 -4.991242 0.960471 4.186321 -3.637506 -15.834977 -8.566863 5.307786 125.563536 -81.750471 -110.837047 12.987998 -7.401746 -19.798777 -14.105519 0.617865 -5.562470 -4.006500 -22.389368 4.749641 -122.322499 -42.657511 132.655565 21.080414 -42.253517 13.953180 -18.776536 -38.650033 11.382357 32.968823 87.496208 30.077466 1.172669 -18.435036 -1.104908 -0.023747 0.541617 -0.032434 -15.883475 -51.963260 20.254853 169.961392 78.321451 166.319015 -1.107952 -16.254639 0.849495 -0.935034 -2.888556 -0.408127
-5.402377 55.377453 28.792925 174.827487 -26.323243 -10.178698 0.641366 15.935279 6.985650 -0.008960 9.058671 2.825231 0.069900 11.319688 3.536924 -0.001405 9.048998 2.816203 4.466821 17.925909 -3.668632 5.665417 -6.618525 -4.988367 0.953701 4.185113 -3.632918 -15.845402 -8.631804 5.276847 125.429181 -81.723937 -110.705728 13.001998 -7.466429 -19.911310 -14.118241 0.625607 -5.552227 -4.046117 -22.360047 4.764466 -122.317594 -42.692037 132.679908 21.038567 -42.318469 13.971309 -18.757443 -38.626062 11.386275 32.606671 87.478230 29.708641 1.203598 -18.407512 -1.108529 -0.013285 0.539919 -0.030290 -15.853097 -51.943831 20.250351 169.932858 78.337253 166.290401 -1.107696 -16.227906 0.864356 -0.947879 -2.900706 -0.413705
-5.410801 55.381967 28.808869 174.831777 -26.315133 -10.158045 0.621298 15.949445 6.974702 -0.002141 9.049261 2.815709 0.073521 11.342703 3.547570 0.006346 9.101024 2.839849 4.457481 17.947927 -3.663097 5.653728 -6.594941 -4.979957 0.943001 4.165038 -3.638524 -15.849720 -8.692522 5.258754 124.923164 -81.756244 -110.234382 12.997675 -7.545824 -20.046699 -14.130362 0.636937 -5.541505 -4.065823 -22.348906 4.767419 -122.297708 -42.715254 132.676525 21.015793 -42.385501 13.986028 -18.736037 -38.645139 11.363356 32.450378 87.458995 29.545710 1.209059 -18.387167 -1.105768 -0.003933 0.542536 -0.023516 -15.798076 -51.957788 20.203732 170.005062 78.375580 166.359611 -1.109163 -16.216855 0.887425 -0.944255 -2.885784 -0.411532
-5.414420 55.390643 28.820267 174.820083 -26.344105 -10.162583 0.635150 15.992208 6.996251 0.003258 9.070801 2.824839 0.075263 11.337618 3.542368 0.010438 9.146106 2.860632 4.442174 17.972720 -3.655149 5.634859 -6.568800 -4.967426 0.927351 4.163955 -3.633252 -15.861009 -8.734866 5.229288 124.861186 -81.799740 -110.184288 12.979544 -7.579483 -20.117846 -14.142295 0.651802 -5.530923 -4.069870 -22.326852 4.766592 -122.284008 -42.726094 132.682589 20.994743 -42.359086 13.935006 -18.707631 -38.613731 11.354748 32.176142 87.431513 29.257511 1.298886 -18.360720 -1.120040 -0.050130 0.543352 -0.016646 -15.748286 -51.928088 20.187303 170.047881 78.402335 166.413120 -1.118295 -16.207705 0.897760 -0.932625 -2.881469 -0.408743
-5.418017 55.399583 28.831495 174.806720 -26.371119 -10.171461 0.642202 16.030039 7.025733 0.010050 9.111570 2.839639 0.084491 11.388553 3.561247 0.010123 9.111551 2.839724 4.421668 18.000922 -3.644247 5.609616 -6.539234 -4.950343 0.904916 4.182934 -3.615043 -15.873803 -8.792938 5.203824 124.863826 -81.845449 -110.192972 12.965297 -7.595473 -20.167060 -14.154646 0.671722 -5.515612 -4.059693 -22.296623 4.760198 -122.334282 -42.702807 132.769113 20.978462 -42.315961 13.888054 -18.678977 -38.579311 11.373965 31.495003 87.410846 28.582862 1.218793 -18.341712 -1.088697 -0.053453 0.546429 -0.019648 -15.714836 -51.899668 20.182280 170.046966 78.423273 166.420158 -1.123519 -16.194746 0.905248 -0.930821 -2.882154 -0.407851
-5.425119 55.408377 28.840405 174.803671 -26.402608 -10.166633 0.645482 16.065082 7.027604 0.013991 9.129356 2.845878 0.089693 11.410713 3.569299 0.014005 9.129369 2.845960 4.401342 17.987028 -3.651806 5.572252 -6.466779 -4.903743 0.878859 4.183210 -3.605531 -15.902220 -8.788075 5.203088 125.093477 -81.845730 -110.404963 12.940646 -7.588625 -20.215164 -14.165598 0.651717 -5.509232 -4.046196 -22.215023 4.762772 -122.395188 -42.678008 132.863022 20.981870 -42.278740 13.841892 -18.647684 -38.546956 11.355618 31.266035 87.386886 28.346726 1.213997 -18.324447 -1.078223 -0.053853 0.547722 -0.017837 -15.664837 -51.862862 20.147958 170.138732 78.456654 166.511156 -1.124255 -16.193912 0.919361 -0.918855 -2.869164 -0.404921
